<?xml version="1.0" encoding="UTF-8" standalone="no"?>
<!-- Created with Inkscape (http://www.inkscape.org/) -->

<svg
   version="1.1"
   id="svg1"
   width="1060"
   height="1060"
   viewBox="0 0 1060 1060"
   xml:space="preserve"
   xmlns="http://www.w3.org/2000/svg"
   xmlns:svg="http://www.w3.org/2000/svg"><defs
     id="defs1" /><g
     id="g1"><rect
       style="display:inline;fill:#000000;fill-opacity:1"
       id="rect12"
       width="1061.1107"
       height="1059.0464"
       x="2.5599093e-08"
       y="0" /><g
       id="g10"
       style="display:inline"><path
         d="m 535.5,288.75391 -13.41211,1.64843 -13.41406,1.64844 -7.58594,1.53711 -7.58789,1.53906 -13.125,4.35547 -13.125,4.35547 -10.375,4.90625 -10.375,4.90625 -9.35547,5.80078 -9.35547,5.80078 -8.14453,6.10742 -8.14453,6.10938 -9.40039,9.01562 -9.40039,9.01563 -7.24414,8.66211 -7.24414,8.66211 -6.67383,10.11914 -6.67188,10.11914 -6.87695,14.21875 -6.87695,14.21875 -3.4668,10.5 -3.4668,10.5 -2.51953,12 -2.51953,12 -1.19922,12.5 -1.19922,12.5 0.67579,12.91797 0.67578,12.91601 1.96093,11.47071 1.96094,11.4707 4.1875,12.5957 4.18945,12.59766 7.71485,15.51562 7.71289,15.51563 9.92383,15 9.92383,15 20.83593,26 20.83594,26 9.70117,13 9.70117,13 6.70704,10.5 6.70703,10.5 6.82226,13.72656 6.82227,13.72852 4.17578,13.27148 4.17578,13.27344 1.86523,4.1543 1.86524,4.15234 3.49414,2.66602 3.49414,2.66601 2.81641,0.84375 2.81445,0.8457 2,0.0801 2,0.0801 76.5,-8.4707 76.5,-8.47071 3.55273,-1.01562 3.55274,-1.01563 3.35156,-3.25781 3.35352,-3.25781 1.72461,-4 1.72461,-4 0.61914,-11.63867 0.61718,-11.64063 2.02539,-11.85937 2.02539,-11.86133 3.04493,-11 3.04687,-11 5.04492,-13.5 5.04493,-13.5 5.43945,-12.3125 5.43945,-12.3125 12.51172,-26.16602 12.51367,-26.16601 5.35352,-13.52149 5.35351,-13.52148 3.56446,-12.5 3.5664,-12.5 1.95117,-9.55078 1.95118,-9.55078 1.18945,-10.94922 L 754.25,495.5 753.68359,484 l -0.5664,-11.5 -2.06641,-10.99023 -2.06836,-10.99024 -2.51953,-9.24609 -2.51758,-9.24805 -3.36328,-8.80859 -3.36133,-8.81055 -5.53711,-11.03906 -5.53515,-11.03907 -6.98242,-10.41406 -6.98047,-10.41406 -8.04493,-9.61133 -8.04296,-9.61328 -8.29883,-7.42969 -8.29883,-7.43164 -5,-4.08594 -5,-4.08593 -10.72461,-6.97461 -10.72266,-6.97656 -10.27734,-5.05665 -10.27539,-5.05664 -9.81836,-3.63086 -9.81836,-3.63085 -9.18164,-2.42579 -9.18164,-2.42578 -9,-1.61523 -9,-1.61328 -18,-0.54102 z"
         style="display:inline;fill:#ffffff"
         id="path27" /><path
         d="m 521.06719,922.65752 c -2.42889,0.82706 -2.14017,12.99549 0.95122,15.86648 6.07575,3.82879 13.62509,3.05238 20.27064,5.23709 5.29531,1.47935 10.52817,3.74631 14.8277,7.1918 3.47184,3.7314 5.52228,10.41847 11.58832,10.34203 12.59657,-0.20288 25.1938,-0.36122 37.79102,-0.51758 3.22496,-6.28245 6.55591,-13.58069 13.70866,-16.13793 6.68444,-3.65523 12.09224,-0.81362 18.54477,-4.97435 7.67916,-0.65346 7.12555,-9.79002 5.44559,-16.01663 -5.90387,-2.4434 -11.50021,-0.94802 -16.94018,-0.94467 -34.37963,-0.13426 -71.80812,0.0895 -106.18774,-0.0462 z"
         id="path100"
         style="fill:#ffff00" /><path
         d="m 679.2175,853.96346 -196.02802,23.23989 0.95595,36.45079 195.54327,-22.09608 c 0.0103,0.10064 -0.4712,-37.5946 -0.4712,-37.5946 z"
         style="display:inline;fill:#ffff00"
         id="path18" /><path
         d="m 678,794.12504 -195.11408,24.27937 0.65912,37.40943 194.24315,-24.90259 z"
         style="display:inline;fill:#ffff00"
         id="path17" /><path
         d="m 286.35007,176.70987 c -1.77739,1.75533 -6.1052,3.12733 -1.5995,8.42023 l 105.55534,118.03613 c 6.32923,6.81773 7.44077,1.97545 3.51522,-7.93993 L 352.4934,143.14592 c 0.77356,-1.90062 -3.93297,-9.31001 -7.79085,-5.56546 z"
         style="display:inline;fill:#ffff00"
         id="path16" /><path
         d="m 657.99752,268.86761 c -0.93542,9.19866 5.52356,2.20069 5.52356,2.20069 l 95.1097,-100.22028 c 4.16231,-4.38597 1.28451,-7.22389 1.28451,-7.22389 l -55.54216,-46.33311 c -4.61789,-3.85223 -5.89835,1.42049 -5.89835,1.42049 z"
         style="display:inline;fill:#ffff00"
         id="path15" /><path
         d="m 491.37459,108.0299 39.58303,149.65675 c 2.34354,8.39305 5.29001,9.16554 7.24734,0.46853 l 18.54148,-145.89233 c -0.0822,-1.99869 -0.63908,-4.11795 -3.69552,-5.03509 l -57.60514,-3.51647 c -2.53093,-0.0278 -4.81228,0.25638 -4.07119,4.31861 z"
         style="display:inline;fill:#ffff00"
         id="path13" /></g></g></svg>
